# xmcd
#
# Track frame offsets: 
#        150
#        9859
#        28754
#        50271
#        63304
#        81376
#        95370
#        112030
#        123952
#        139853
#        161990
#        181346
#        198878
#        212960
#        228483
#        240282
#        257992
#        286920
#        304177
#
# Disc length: 4321 seconds
#
# Revision: 1
# Processed by: cddbd v1.5.2PL0 Copyright (c) Steve Scherf et al.
# Submitted via: ExactAudioCopy v0.99pb3
#
DISCID=0910df13
DTITLE=Robyn Hitchcock and the Egyptians - Gotta Let This Hen Out! [R]
DYEAR=1985
DGENRE=Rock
TTITLE0=Sometimes I Wish I Was a Pretty Girl
TTITLE1=Kingdom of Love
TTITLE2=Acid Bird
TTITLE3=The Cars She Used to Drive
TTITLE4=My Wife and My Dead Wife
TTITLE5=Brenda's Iron Sledge
TTITLE6=The Fly
TTITLE7=Only the Stones Remain
TTITLE8=Egyptian Cream
TTITLE9=Leppo and the Jooves
TTITLE10=America
TTITLE11=Heaven 
TTITLE12=Listening to the Higsons
TTITLE13=The Face of Death
TTITLE14=If You Were a Priest
TTITLE15=Freeze
TTITLE16=I'm Only You
TTITLE17=Unsettled
TTITLE18=Egyptian Cream #2
EXTD=
EXTT0=
EXTT1=
EXTT2=
EXTT3=
EXTT4=
EXTT5=
EXTT6=
EXTT7=
EXTT8=
EXTT9=
EXTT10=
EXTT11=
EXTT12=
EXTT13=
EXTT14=
EXTT15=
EXTT16=
EXTT17=
EXTT18=
PLAYORDER=
